<svg width="22" height="17" viewBox="0 0 22 17" fill="none" xmlns="http://www.w3.org/2000/svg">
<path d="M20 0H2C1.46957 0 0.960859 0.210714 0.585786 0.585786C0.210714 0.960859 0 1.46957 0 2V15C0 15.5304 0.210714 16.0391 0.585786 16.4142C0.960859 16.7893 1.46957 17 2 17H20C20.5304 17 21.0391 16.7893 21.4142 16.4142C21.7893 16.0391 22 15.5304 22 15V2C22 1.46957 21.7893 0.960859 21.4142 0.585786C21.0391 0.210714 20.5304 0 20 0ZM2 15V2H10V15H2ZM20 15H12V2H20V15ZM13 5.5H19V7H13V5.5ZM13 8H19V9.5H13V8ZM13 10.5H19V12H13V10.5Z" fill="#ACB2BD"/>
</svg>
