<svg width="17" height="20" viewBox="0 0 17 20" fill="none" xmlns="http://www.w3.org/2000/svg">
<path d="M1.5 0H15.5C15.7652 0 16.0196 0.105357 16.2071 0.292893C16.3946 0.48043 16.5 0.734784 16.5 1V11C16.5 11.2652 16.3946 11.5196 16.2071 11.7071C16.0196 11.8946 15.7652 12 15.5 12H1.5C1.23478 12 0.98043 11.8946 0.792893 11.7071C0.605357 11.5196 0.5 11.2652 0.5 11V1C0.5 0.734784 0.605357 0.48043 0.792893 0.292893C0.98043 0.105357 1.23478 0 1.5 0ZM2.5 2V10H14.5V2H2.5ZM16.5 15C16.5 15.2652 16.3946 15.5196 16.2071 15.7071C16.0196 15.8946 15.7652 16 15.5 16H1.5C1.23478 16 0.98043 15.8946 0.792893 15.7071C0.605357 15.5196 0.5 15.2652 0.5 15V14H16.5V15ZM16.5 19C16.5 19.2652 16.3946 19.5196 16.2071 19.7071C16.0196 19.8946 15.7652 20 15.5 20H1.5C1.23478 20 0.98043 19.8946 0.792893 19.7071C0.605357 19.5196 0.5 19.2652 0.5 19V18H16.5V19Z" fill="#ACB2BD"/>
</svg>
