<svg width="92" height="45" viewBox="0 0 92 45" fill="none" xmlns="http://www.w3.org/2000/svg">
<path fill-rule="evenodd" clip-rule="evenodd" d="M48.3191 19.5122C48.3191 8.90056 53.6132 0 67.8313 0C82.1526 0 87.3435 9.00379 87.3435 19.5122C87.3435 30.1239 82.0493 39.0244 67.8313 39.0244C53.51 39.0244 48.3191 30.0206 48.3191 19.5122ZM0 1.4418C0 0.929608 0.415214 0.514395 0.927406 0.514395H47.7724C48.3455 0.514395 48.7814 1.029 48.6872 1.59429L47.8365 6.69776C47.3892 9.38079 45.0678 11.3472 42.3478 11.3472H22.2921V37.5092C22.2921 38.0214 21.8769 38.4366 21.3647 38.4366H12.4256C11.9134 38.4366 11.4982 38.0214 11.4982 37.5092V11.3472H0.927406C0.415214 11.3472 0 10.932 0 10.4198V1.4418ZM27.6361 15.4124C27.1239 15.4124 26.7087 15.8277 26.7087 16.3398V24.4171C26.7087 24.9292 27.1239 25.3445 27.6361 25.3445H43.1888C43.7786 25.3445 44.2277 24.7997 44.1467 24.2155C44.0226 23.321 43.8826 21.9611 43.8826 20.3784C43.8826 18.7958 44.0226 17.4359 44.1467 16.5414C44.2277 15.9572 43.7786 15.4124 43.1888 15.4124H27.6361ZM26.7087 29.8835C26.7087 29.3713 27.1239 28.9561 27.6361 28.9561H42.2335C44.9051 28.9561 47.1997 30.8549 47.6996 33.4794L48.4342 37.3357C48.543 37.9072 48.1049 38.4367 47.5231 38.4367H27.6361C27.1239 38.4367 26.7087 38.0214 26.7087 37.5093V29.8835Z" fill="url(#paint0_linear)"/>
<circle cx="67.8918" cy="19.5122" r="8.8281" fill="white"/>
<path fill-rule="evenodd" clip-rule="evenodd" d="M67.6765 28.3377L74.3946 38.271C79.2731 37.0361 82.5923 34.3613 84.648 30.8322L76.7296 20.9165C76.697 20.8757 76.6626 20.8372 76.6266 20.8011C76.0028 25.0658 72.3298 28.3403 67.892 28.3403C67.8199 28.3403 67.7481 28.3395 67.6765 28.3377Z" fill="#684DA3"/>
<path d="M67.7808 28.3403C67.7808 28.3403 70.1775 27.4302 72.8518 25.0223C75.5261 22.6144 76.6817 20.3258 76.6817 20.3258L91.6822 36.9855L84.6387 38.113L82.7812 45L67.7808 28.3403Z" fill="#FF9E0D"/>
<defs>
<linearGradient id="paint0_linear" x1="82.9884" y1="3.13387" x2="-0.860403" y2="39.7832" gradientUnits="userSpaceOnUse">
<stop stop-color="#2CA9DE"/>
<stop offset="1" stop-color="#1EBDE0"/>
</linearGradient>
</defs>
</svg>
